<svg width="96" height="31" viewBox="0 0 96 31" fill="none" xmlns="http://www.w3.org/2000/svg">
<path d="M95.9992 0.62323L25.7673 27.1007C19.9433 29.2824 15.0513 30.3768 11.0953 30.3768C6.61525 30.3768 3.36326 28.9884 1.34726 26.2082C0.0792553 24.4232 -0.292745 22.1601 0.227255 19.4153C0.747255 16.6705 2.13126 13.7486 4.37125 10.6391C6.23925 8.12448 9.29925 4.8201 13.5593 0.722396C12.1143 2.73642 11.0547 4.94781 10.4233 7.26739C9.30325 11.4997 10.3113 14.6057 13.4473 16.5891C14.9393 17.5134 16.9913 17.9774 19.6073 17.9774C21.6953 17.9774 24.0473 17.6799 26.6633 17.0849L95.9992 0.62323Z" fill="black"/>
</svg>
